{"title":"Captain Phillips (2013) CamRip.flv","uid":9091969,"size":519052482,"categoryP":"video","categoryS":"movies","magnet":"?xt=urn:btih:f5255f34632ae850db3c9a3cda5138a29f82b6fa&amp;dn=Captain+Phillips+%282013%29+CamRip.flv&amp;tr=udp%3A%2F%2Ftracker.openbittorrent.com%3A80&amp;tr=udp%3A%2F%2Fopen.demonii.com%3A1337&amp;tr=udp%3A%2F%2Ftracker.coppersurfer.tk%3A6969&amp;tr=udp%3A%2F%2Fexodus.desync.com%3A6969","seeders":6,"leechers":1,"uploader":"globeplus","files":-1,"time":1382576017,"description":"Captain Phillips (2013) CamRip.flv\n\n\nFormat                                   : Flash Video\nFile size                                : 495 MiB\nDuration                                 : 2h 0mn\nOverall bit rate                         : 576 Kbps\nTagging application                      : Yet Another Metadata Injector for FLV - Version 1.9\n\nVideo\n\nFormat                                   : AVC\nFormat/Info                              : Advanced Video Codec\nFormat profile                           : &lt;a class=&quot;__cf_email__&quot; href=&quot;/cdn-cgi/l/email-protection&quot; data-cfemail=&quot;e9a1808e81a9a5dac7d9&quot;&gt;[email&amp;#160;protected]&lt;/a&gt;&lt;script cf-hash='f9e31' type=&quot;text/javascript&quot;&gt;\n/* &lt;![CDATA[ */!function(){try{var t=&quot;currentScript&quot;in document?document.currentScript:function(){for(var t=document.getElementsByTagName(&quot;script&quot;),e=t.length;e--;)if(t[e].getAttribute(&quot;cf-hash&quot;))return t[e]}();if(t&amp;&amp;t.previousSibling){var e,r,n,i,c=t.previousSibling,a=c.getAttribute(&quot;data-cfemail&quot;);if(a){for(e=&quot;&quot;,r=parseInt(a.substr(0,2),16),n=2;a.length-n;n+=2)i=parseInt(a.substr(n,2),16)^r,e+=String.fromCharCode(i);e=document.createTextNode(e),c.parentNode.replaceChild(e,c)}}}catch(u){}}();/* ]]&gt; */&lt;/script&gt;\nFormat settings, CABAC                   : Yes\nFormat settings, ReFrames                : 4 frames\nCodec ID                                 : 7\nDuration                                 : 2h 0mn\nBit rate                                 : 416 Kbps\nWidth                                    : 720 pixels\nHeight                                   : 346 pixels\nDisplay aspect ratio                     : 2.081\nFrame rate mode                          : Constant\nFrame rate                               : 25.000 fps\nColor space                              : YUV\nChroma subsampling                       : 4:2:0\nBit depth                                : 8 bits\nScan type                                : Progressive\nBits/(Pixel*Frame)                       : 0.067\nStream size                              : 368 MiB (74%)\nWriting library                          : x264 core 138\n\n\nAudio\n\nFormat                                   : AAC\nFormat/Info                              : Advanced Audio Codec\nFormat profile                           : LC\nCodec ID                                 : 10\nDuration                                 : 2h 0mn\nBit rate                                 : 139 Kbps\nChannel(s)                               : 2 channels\nChannel positions                        : Front: L R\nSampling rate                            : 44.1 KHz\nCompression mode                         : Lossy\nDelay relative to video                  : 17ms\nStream size                              : 125 MiB (25%)\n\n\nPlot\n\nRichard Phillips (Tom Hanks) takes command of the MV Maersk Alabama at port in Oman, with orders to sail its cargo through the Gulf of Aden to Mombasa. Wary of pirate activity off the coast of Somalia, he orders security precautions on the vessel. During one training exercise, Phillips is aware they might be hijacked by Somali pirates in two skiffs but he succeeds in outrunning the pirates. Four pirates return the next day led by Abduwali Muse (Barkhad Abdi) in a faster skiff. Despite Phillips and his crew's best efforts, they are able to board and take control of the Maersk Alabama, capturing the captain while most of his crew hides in the ship's engine room. Muse, under orders from a local faction leader, hopes to ransom the ship and crew in exchange for insurance money from the shipping company.\n\n\n\n\n* enjoy ...\n\n","torrent":{"xt":"urn:btih:f5255f34632ae850db3c9a3cda5138a29f82b6fa","amp;dn":"Captain+Phillips+%282013%29+CamRip.flv","amp;tr":["udp%3A%2F%2Ftracker.openbittorrent.com%3A80","udp%3A%2F%2Fopen.demonii.com%3A1337","udp%3A%2F%2Ftracker.coppersurfer.tk%3A6969","udp%3A%2F%2Fexodus.desync.com%3A6969"],"infoHash":"f5255f34632ae850db3c9a3cda5138a29f82b6fa","infoHashBuffer":{"type":"Buffer","data":[245,37,95,52,99,42,232,80,219,60,154,60,218,81,56,162,159,130,182,250]},"announce":[],"urlList":[]}}